<svg version="1.1" id="Layer_1" xmlns="http://www.w3.org/2000/svg" x="0" y="0" viewBox="0 0 500 500" style="enable-background:new 0 0 500 500" xml:space="preserve"><style>.st1{fill:#1c1d21}.st3{fill:#aab1ba}.st5{fill:#fddf7f}</style><path d="M465 495H35c-16.6 0-30-13.4-30-30V93.6c0-16.6 13.4-30 30-30h430c16.6 0 30 13.4 30 30V465c0 16.6-13.4 30-30 30z" style="fill:#ecf4f7"/><path d="M495 148.6v-55c0-16.6-13.4-30-30-30H35c-16.6 0-30 13.4-30 30v55h490z" style="fill:#83e1e5"/><path class="st1" d="M5 219.3c-2.8 0-5-2.2-5-5v-13.7c0-2.8 2.2-5 5-5s5 2.2 5 5v13.7c0 2.7-2.2 5-5 5zM5 338.9c-2.8 0-5-2.2-5-5V241c0-2.8 2.2-5 5-5s5 2.2 5 5v92.9c0 2.7-2.2 5-5 5z"/><path class="st1" d="M465 500H35c-19.3 0-35-15.7-35-35V363.3c0-2.8 2.2-5 5-5s5 2.2 5 5V465c0 13.8 11.2 25 25 25h430c13.8 0 25-11.2 25-25V93.6c0-13.8-11.2-25-25-25H35c-13.8 0-25 11.2-25 25V174c0 2.8-2.2 5-5 5s-5-2.2-5-5V93.6c0-19.3 15.7-35 35-35h430c19.3 0 35 15.7 35 35V465c0 19.3-15.7 35-35 35z"/><path class="st1" d="M387 153.6H5c-2.8 0-5-2.2-5-5s2.2-5 5-5h382c2.8 0 5 2.2 5 5s-2.2 5-5 5zM436.9 153.6h-22c-2.8 0-5-2.2-5-5s2.2-5 5-5h22c2.8 0 5 2.2 5 5s-2.2 5-5 5zM460 153.6h-4.3c-2.8 0-5-2.2-5-5s2.2-5 5-5h4.3c2.8 0 5 2.2 5 5s-2.2 5-5 5z"/><path class="st5" d="M125.5 21.3c-13.8 0-25 11.2-25 25V81c0 13.8 11.2 25 25 25s25-11.2 25-25V46.3c0-13.8-11.2-25-25-25z"/><path class="st1" d="M125.5 110.9c-16.5 0-30-13.5-30-30V46.3c0-16.5 13.5-30 30-30s30 13.5 30 30V81c0 16.5-13.5 29.9-30 29.9zm0-84.6c-11 0-20 9-20 20V81c0 11 9 20 20 20s20-9 20-20V46.3c0-11.1-9-20-20-20z"/><path class="st5" d="M374.5 21.3c-13.8 0-25 11.2-25 25V81c0 13.8 11.2 25 25 25s25-11.2 25-25V46.3c0-13.8-11.2-25-25-25z"/><path class="st1" d="M374.5 110.9c-16.5 0-30-13.5-30-30V46.3c0-16.5 13.5-30 30-30s30 13.5 30 30V81c0 16.5-13.5 29.9-30 29.9zm0-84.6c-11 0-20 9-20 20V81c0 11 9 20 20 20s20-9 20-20V46.3c0-11.1-9-20-20-20z"/><g><circle class="st3" cx="163.8" cy="239.4" r="21.8"/><circle class="st3" cx="250" cy="239.4" r="21.8"/><circle class="st3" cx="336.2" cy="239.4" r="21.8"/><circle class="st3" cx="422.3" cy="239.4" r="21.8"/><g><circle class="st5" cx="77.7" cy="315.3" r="21.8"/><circle class="st3" cx="163.8" cy="315.3" r="21.8"/><circle class="st3" cx="250" cy="315.3" r="21.8"/><circle class="st3" cx="336.2" cy="315.3" r="21.8"/><circle class="st3" cx="422.3" cy="315.3" r="21.8"/></g><g><circle class="st5" cx="77.7" cy="391.3" r="21.8"/><circle class="st3" cx="163.8" cy="391.3" r="21.8"/><circle class="st3" cx="250" cy="391.3" r="21.8"/><circle class="st3" cx="336.2" cy="391.3" r="21.8"/></g></g><g><path class="st1" d="M163.8 266.1c-14.8 0-26.8-12-26.8-26.8s12-26.8 26.8-26.8 26.8 12 26.8 26.8-12 26.8-26.8 26.8zm0-43.5c-9.2 0-16.8 7.5-16.8 16.8 0 9.2 7.5 16.8 16.8 16.8s16.8-7.5 16.8-16.8-7.5-16.8-16.8-16.8zM250 266.1c-14.8 0-26.8-12-26.8-26.8s12-26.8 26.8-26.8 26.8 12 26.8 26.8-12 26.8-26.8 26.8zm0-43.5c-9.2 0-16.8 7.5-16.8 16.8 0 9.2 7.5 16.8 16.8 16.8s16.8-7.5 16.8-16.8-7.6-16.8-16.8-16.8zM336.2 266.1c-14.8 0-26.8-12-26.8-26.8s12-26.8 26.8-26.8 26.8 12 26.8 26.8c-.1 14.8-12.1 26.8-26.8 26.8zm0-43.5c-9.2 0-16.8 7.5-16.8 16.8 0 9.2 7.5 16.8 16.8 16.8s16.8-7.5 16.8-16.8c-.1-9.3-7.6-16.8-16.8-16.8zM422.3 266.1c-14.8 0-26.8-12-26.8-26.8s12-26.8 26.8-26.8 26.8 12 26.8 26.8-12 26.8-26.8 26.8zm0-43.5c-9.2 0-16.8 7.5-16.8 16.8 0 9.2 7.5 16.8 16.8 16.8s16.8-7.5 16.8-16.8-7.6-16.8-16.8-16.8z"/><g><path class="st1" d="M77.7 342.1c-14.8 0-26.8-12-26.8-26.8s12-26.8 26.8-26.8 26.8 12 26.8 26.8c-.1 14.8-12.1 26.8-26.8 26.8zm0-43.5c-9.2 0-16.8 7.5-16.8 16.8s7.5 16.8 16.8 16.8c9.2 0 16.8-7.5 16.8-16.8s-7.6-16.8-16.8-16.8zM163.8 342.1c-14.8 0-26.8-12-26.8-26.8s12-26.8 26.8-26.8 26.8 12 26.8 26.8-12 26.8-26.8 26.8zm0-43.5c-9.2 0-16.8 7.5-16.8 16.8s7.5 16.8 16.8 16.8 16.8-7.5 16.8-16.8-7.5-16.8-16.8-16.8zM250 342.1c-14.8 0-26.8-12-26.8-26.8s12-26.8 26.8-26.8 26.8 12 26.8 26.8-12 26.8-26.8 26.8zm0-43.5c-9.2 0-16.8 7.5-16.8 16.8s7.5 16.8 16.8 16.8 16.8-7.5 16.8-16.8-7.6-16.8-16.8-16.8zM336.2 342.1c-14.8 0-26.8-12-26.8-26.8s12-26.8 26.8-26.8 26.8 12 26.8 26.8c-.1 14.8-12.1 26.8-26.8 26.8zm0-43.5c-9.2 0-16.8 7.5-16.8 16.8s7.5 16.8 16.8 16.8 16.8-7.5 16.8-16.8-7.6-16.8-16.8-16.8zM422.3 342.1c-14.8 0-26.8-12-26.8-26.8s12-26.8 26.8-26.8 26.8 12 26.8 26.8-12 26.8-26.8 26.8zm0-43.5c-9.2 0-16.8 7.5-16.8 16.8s7.5 16.8 16.8 16.8 16.8-7.5 16.8-16.8-7.6-16.8-16.8-16.8z"/></g><g><path class="st1" d="M77.7 418.1c-14.8 0-26.8-12-26.8-26.8s12-26.8 26.8-26.8 26.8 12 26.8 26.8c-.1 14.8-12.1 26.8-26.8 26.8zm0-43.5c-9.2 0-16.8 7.5-16.8 16.8 0 9.2 7.5 16.8 16.8 16.8 9.2 0 16.8-7.5 16.8-16.8-.1-9.3-7.6-16.8-16.8-16.8zM163.8 418.1c-14.8 0-26.8-12-26.8-26.8s12-26.8 26.8-26.8 26.8 12 26.8 26.8-12 26.8-26.8 26.8zm0-43.5c-9.2 0-16.8 7.5-16.8 16.8 0 9.2 7.5 16.8 16.8 16.8s16.8-7.5 16.8-16.8-7.5-16.8-16.8-16.8zM250 418.1c-14.8 0-26.8-12-26.8-26.8s12-26.8 26.8-26.8 26.8 12 26.8 26.8-12 26.8-26.8 26.8zm0-43.5c-9.2 0-16.8 7.5-16.8 16.8 0 9.2 7.5 16.8 16.8 16.8s16.8-7.5 16.8-16.8-7.6-16.8-16.8-16.8zM336.2 418.1c-14.8 0-26.8-12-26.8-26.8s12-26.8 26.8-26.8 26.8 12 26.8 26.8c-.1 14.8-12.1 26.8-26.8 26.8zm0-43.5c-9.2 0-16.8 7.5-16.8 16.8 0 9.2 7.5 16.8 16.8 16.8s16.8-7.5 16.8-16.8c-.1-9.3-7.6-16.8-16.8-16.8z"/></g></g></svg>